# xmcd CD database file
#
# Track frame offsets:
#	150
#	24922
#	53237
#	81525
#	103277
#	113300
#	134625
#	153784
#	163167
#	185187
#	208427
#	239932
#
# Disc length: 3360 seconds
#
# Revision: 2
# Processed by: cddbd v1.5.1PL0 Copyright (c) Steve Scherf et al.
# Submitted via: CDex 1.50
#
DISCID=b30d1e0c
DTITLE=Jeanette Lindström - In the Middle Of This Riddle
DYEAR=2005
DGENRE=Jazz
TTITLE0=Always
TTITLE1=From This tower
TTITLE2=The World
TTITLE3=You Could Rely On Me
TTITLE4=End
TTITLE5=Leaf
TTITLE6=Too
TTITLE7=Going Up
TTITLE8=Here
TTITLE9=When Things Get Real
TTITLE10=Be There
TTITLE11=Too (Take 1)
EXTD=YEAR: 2005
EXTT0=
EXTT1=
EXTT2=
EXTT3=
EXTT4=
EXTT5=
EXTT6=
EXTT7=
EXTT8=
EXTT9=
EXTT10=
EXTT11=
PLAYORDER=
